<mxfile host="app.diagrams.net" agent="Mozilla/5.0 (Windows NT 10.0; Win64; x64) AppleWebKit/537.36 (KHTML, like Gecko) Chrome/131.0.0.0 Safari/537.36" version="26.0.7">
  <diagram name="Seite-1" id="5Ftch37TfvZpWDhrT8Yv">
    <mxGraphModel grid="1" page="1" gridSize="10" guides="1" tooltips="1" connect="1" arrows="1" fold="1" pageScale="1" pageWidth="827" pageHeight="1169" math="0" shadow="0">
      <root>
        <mxCell id="0" />
        <mxCell id="1" parent="0" />
        <mxCell id="7Iq_fOwBtfNfJKV4haK1-1" value="&lt;font style=&quot;font-size: 21px;&quot;&gt;&lt;b&gt;Flowchart of order status and steps&lt;/b&gt;&lt;/font&gt;" style="text;html=1;align=center;verticalAlign=middle;whiteSpace=wrap;rounded=0;fillColor=#f5f5f5;strokeColor=#666666;fontColor=#333333;" vertex="1" parent="1">
          <mxGeometry x="138" y="60" width="551" height="30" as="geometry" />
        </mxCell>
        <mxCell id="7Iq_fOwBtfNfJKV4haK1-2" value="&lt;font style=&quot;font-size: 16px;&quot;&gt;&lt;b&gt;ERP&lt;/b&gt;&lt;/font&gt;" style="text;html=1;align=center;verticalAlign=middle;whiteSpace=wrap;rounded=0;fillColor=#e1d5e7;strokeColor=#9673a6;" vertex="1" parent="1">
          <mxGeometry x="135" y="160" width="60" height="30" as="geometry" />
        </mxCell>
        <mxCell id="7Iq_fOwBtfNfJKV4haK1-3" value="&lt;font style=&quot;font-size: 16px;&quot;&gt;&lt;b&gt;MAGENTO&lt;/b&gt;&lt;/font&gt;" style="text;html=1;align=center;verticalAlign=middle;whiteSpace=wrap;rounded=0;fillColor=#e1d5e7;strokeColor=#9673a6;" vertex="1" parent="1">
          <mxGeometry x="415" y="160" width="120" height="30" as="geometry" />
        </mxCell>
        <mxCell id="7Iq_fOwBtfNfJKV4haK1-4" value="&lt;span style=&quot;font-size: 16px;&quot;&gt;&lt;b&gt;CUSTOMER&lt;/b&gt;&lt;/span&gt;" style="text;html=1;align=center;verticalAlign=middle;whiteSpace=wrap;rounded=0;fillColor=#e1d5e7;strokeColor=#9673a6;" vertex="1" parent="1">
          <mxGeometry x="695" y="160" width="100" height="30" as="geometry" />
        </mxCell>
        <mxCell id="7Iq_fOwBtfNfJKV4haK1-17" style="edgeStyle=orthogonalEdgeStyle;rounded=0;orthogonalLoop=1;jettySize=auto;html=1;exitX=1;exitY=0.5;exitDx=0;exitDy=0;" edge="1" parent="1" source="7Iq_fOwBtfNfJKV4haK1-5" target="7Iq_fOwBtfNfJKV4haK1-8">
          <mxGeometry relative="1" as="geometry" />
        </mxCell>
        <mxCell id="7Iq_fOwBtfNfJKV4haK1-5" value="" style="ellipse;html=1;shape=startState;fillColor=#000000;strokeColor=#ff0000;" vertex="1" parent="1">
          <mxGeometry x="45" y="240" width="30" height="30" as="geometry" />
        </mxCell>
        <mxCell id="7Iq_fOwBtfNfJKV4haK1-7" value="" style="ellipse;html=1;shape=endState;fillColor=#000000;strokeColor=#ff0000;" vertex="1" parent="1">
          <mxGeometry x="620" y="240" width="30" height="30" as="geometry" />
        </mxCell>
        <mxCell id="7Iq_fOwBtfNfJKV4haK1-10" style="edgeStyle=orthogonalEdgeStyle;rounded=0;orthogonalLoop=1;jettySize=auto;html=1;exitX=1;exitY=0.5;exitDx=0;exitDy=0;" edge="1" parent="1" source="7Iq_fOwBtfNfJKV4haK1-8" target="7Iq_fOwBtfNfJKV4haK1-9">
          <mxGeometry relative="1" as="geometry" />
        </mxCell>
        <mxCell id="7Iq_fOwBtfNfJKV4haK1-11" value="download" style="edgeLabel;html=1;align=center;verticalAlign=middle;resizable=0;points=[];" connectable="0" vertex="1" parent="7Iq_fOwBtfNfJKV4haK1-10">
          <mxGeometry x="-0.3607" y="-1" relative="1" as="geometry">
            <mxPoint x="11" y="-1" as="offset" />
          </mxGeometry>
        </mxCell>
        <mxCell id="7Iq_fOwBtfNfJKV4haK1-8" value="Send file with updated product price and quantity" style="rounded=1;whiteSpace=wrap;html=1;" vertex="1" parent="1">
          <mxGeometry x="105" y="225" width="120" height="60" as="geometry" />
        </mxCell>
        <mxCell id="7Iq_fOwBtfNfJKV4haK1-13" style="edgeStyle=orthogonalEdgeStyle;rounded=0;orthogonalLoop=1;jettySize=auto;html=1;exitX=1;exitY=0.5;exitDx=0;exitDy=0;" edge="1" parent="1" source="7Iq_fOwBtfNfJKV4haK1-9" target="7Iq_fOwBtfNfJKV4haK1-12">
          <mxGeometry relative="1" as="geometry" />
        </mxCell>
        <mxCell id="7Iq_fOwBtfNfJKV4haK1-9" value="Consume file from the eCommerce platform" style="rounded=1;whiteSpace=wrap;html=1;" vertex="1" parent="1">
          <mxGeometry x="315" y="225" width="120" height="60" as="geometry" />
        </mxCell>
        <mxCell id="7Iq_fOwBtfNfJKV4haK1-14" style="edgeStyle=orthogonalEdgeStyle;rounded=0;orthogonalLoop=1;jettySize=auto;html=1;exitX=1;exitY=0.5;exitDx=0;exitDy=0;" edge="1" parent="1" source="7Iq_fOwBtfNfJKV4haK1-12" target="7Iq_fOwBtfNfJKV4haK1-7">
          <mxGeometry relative="1" as="geometry" />
        </mxCell>
        <mxCell id="7Iq_fOwBtfNfJKV4haK1-12" value="Update product price and stock - FE" style="rounded=1;whiteSpace=wrap;html=1;" vertex="1" parent="1">
          <mxGeometry x="455" y="225" width="120" height="60" as="geometry" />
        </mxCell>
        <mxCell id="7Iq_fOwBtfNfJKV4haK1-15" value="Start" style="text;html=1;align=center;verticalAlign=middle;resizable=0;points=[];autosize=1;strokeColor=none;fillColor=none;" vertex="1" parent="1">
          <mxGeometry x="35" y="267" width="50" height="30" as="geometry" />
        </mxCell>
        <mxCell id="7Iq_fOwBtfNfJKV4haK1-16" value="End" style="text;html=1;align=center;verticalAlign=middle;resizable=0;points=[];autosize=1;strokeColor=none;fillColor=none;" vertex="1" parent="1">
          <mxGeometry x="615" y="270" width="40" height="30" as="geometry" />
        </mxCell>
        <mxCell id="7Iq_fOwBtfNfJKV4haK1-76" style="edgeStyle=orthogonalEdgeStyle;rounded=0;orthogonalLoop=1;jettySize=auto;html=1;exitX=1;exitY=0.5;exitDx=0;exitDy=0;" edge="1" parent="1" source="7Iq_fOwBtfNfJKV4haK1-19" target="7Iq_fOwBtfNfJKV4haK1-21">
          <mxGeometry relative="1" as="geometry" />
        </mxCell>
        <mxCell id="7Iq_fOwBtfNfJKV4haK1-19" value="" style="ellipse;html=1;shape=startState;fillColor=#000000;strokeColor=#ff0000;direction=south;" vertex="1" parent="1">
          <mxGeometry x="730" y="350" width="30" height="30" as="geometry" />
        </mxCell>
        <mxCell id="7Iq_fOwBtfNfJKV4haK1-20" value="Start" style="text;html=1;align=center;verticalAlign=middle;resizable=0;points=[];autosize=1;strokeColor=none;fillColor=none;" vertex="1" parent="1">
          <mxGeometry x="720" y="323" width="50" height="30" as="geometry" />
        </mxCell>
        <mxCell id="7Iq_fOwBtfNfJKV4haK1-21" value="Place an order" style="rounded=1;whiteSpace=wrap;html=1;" vertex="1" parent="1">
          <mxGeometry x="685" y="420" width="120" height="60" as="geometry" />
        </mxCell>
        <mxCell id="7Iq_fOwBtfNfJKV4haK1-23" value="" style="endArrow=none;dashed=1;html=1;rounded=0;strokeColor=#FF3333;" edge="1" parent="1">
          <mxGeometry width="50" height="50" relative="1" as="geometry">
            <mxPoint x="20" y="320" as="sourcePoint" />
            <mxPoint x="665" y="320" as="targetPoint" />
          </mxGeometry>
        </mxCell>
        <mxCell id="7Iq_fOwBtfNfJKV4haK1-29" style="edgeStyle=orthogonalEdgeStyle;rounded=0;orthogonalLoop=1;jettySize=auto;html=1;exitX=0;exitY=0.5;exitDx=0;exitDy=0;entryX=1;entryY=0.5;entryDx=0;entryDy=0;" edge="1" parent="1" source="7Iq_fOwBtfNfJKV4haK1-25" target="7Iq_fOwBtfNfJKV4haK1-28">
          <mxGeometry relative="1" as="geometry" />
        </mxCell>
        <mxCell id="7Iq_fOwBtfNfJKV4haK1-25" value="Gets orders" style="rounded=1;whiteSpace=wrap;html=1;" vertex="1" parent="1">
          <mxGeometry x="455" y="335" width="120" height="60" as="geometry" />
        </mxCell>
        <mxCell id="7Iq_fOwBtfNfJKV4haK1-26" style="edgeStyle=orthogonalEdgeStyle;rounded=0;orthogonalLoop=1;jettySize=auto;html=1;exitX=0.25;exitY=0;exitDx=0;exitDy=0;entryX=1;entryY=0.4;entryDx=0;entryDy=0;entryPerimeter=0;" edge="1" parent="1" source="7Iq_fOwBtfNfJKV4haK1-21" target="7Iq_fOwBtfNfJKV4haK1-25">
          <mxGeometry relative="1" as="geometry" />
        </mxCell>
        <mxCell id="7Iq_fOwBtfNfJKV4haK1-27" value="submit/send" style="edgeLabel;html=1;align=center;verticalAlign=middle;resizable=0;points=[];" connectable="0" vertex="1" parent="7Iq_fOwBtfNfJKV4haK1-26">
          <mxGeometry x="0.3435" y="2" relative="1" as="geometry">
            <mxPoint x="-16" y="-7" as="offset" />
          </mxGeometry>
        </mxCell>
        <mxCell id="7Iq_fOwBtfNfJKV4haK1-31" style="edgeStyle=orthogonalEdgeStyle;rounded=0;orthogonalLoop=1;jettySize=auto;html=1;exitX=0.5;exitY=1;exitDx=0;exitDy=0;entryX=0.5;entryY=0;entryDx=0;entryDy=0;" edge="1" parent="1" source="7Iq_fOwBtfNfJKV4haK1-28" target="7Iq_fOwBtfNfJKV4haK1-30">
          <mxGeometry relative="1" as="geometry" />
        </mxCell>
        <mxCell id="7Iq_fOwBtfNfJKV4haK1-28" value="Send order for order processing&amp;nbsp;" style="rounded=1;whiteSpace=wrap;html=1;" vertex="1" parent="1">
          <mxGeometry x="105" y="335" width="120" height="60" as="geometry" />
        </mxCell>
        <mxCell id="7Iq_fOwBtfNfJKV4haK1-33" style="edgeStyle=orthogonalEdgeStyle;rounded=0;orthogonalLoop=1;jettySize=auto;html=1;exitX=0.5;exitY=1;exitDx=0;exitDy=0;entryX=0.5;entryY=0;entryDx=0;entryDy=0;" edge="1" parent="1" source="7Iq_fOwBtfNfJKV4haK1-30" target="7Iq_fOwBtfNfJKV4haK1-32">
          <mxGeometry relative="1" as="geometry" />
        </mxCell>
        <mxCell id="7Iq_fOwBtfNfJKV4haK1-34" value="check" style="edgeLabel;html=1;align=center;verticalAlign=middle;resizable=0;points=[];" connectable="0" vertex="1" parent="7Iq_fOwBtfNfJKV4haK1-33">
          <mxGeometry x="-0.4667" relative="1" as="geometry">
            <mxPoint as="offset" />
          </mxGeometry>
        </mxCell>
        <mxCell id="7Iq_fOwBtfNfJKV4haK1-30" value="Process order" style="rounded=1;whiteSpace=wrap;html=1;" vertex="1" parent="1">
          <mxGeometry x="105" y="420" width="120" height="60" as="geometry" />
        </mxCell>
        <mxCell id="7Iq_fOwBtfNfJKV4haK1-35" style="edgeStyle=orthogonalEdgeStyle;rounded=0;orthogonalLoop=1;jettySize=auto;html=1;exitX=1;exitY=0.5;exitDx=0;exitDy=0;entryX=1;entryY=0.5;entryDx=0;entryDy=0;" edge="1" parent="1" source="7Iq_fOwBtfNfJKV4haK1-32" target="7Iq_fOwBtfNfJKV4haK1-30">
          <mxGeometry relative="1" as="geometry">
            <Array as="points">
              <mxPoint x="245" y="570" />
              <mxPoint x="245" y="450" />
            </Array>
          </mxGeometry>
        </mxCell>
        <mxCell id="7Iq_fOwBtfNfJKV4haK1-36" value="NO" style="edgeLabel;html=1;align=center;verticalAlign=middle;resizable=0;points=[];" connectable="0" vertex="1" parent="7Iq_fOwBtfNfJKV4haK1-35">
          <mxGeometry x="0.2667" y="-1" relative="1" as="geometry">
            <mxPoint as="offset" />
          </mxGeometry>
        </mxCell>
        <mxCell id="7Iq_fOwBtfNfJKV4haK1-38" style="edgeStyle=orthogonalEdgeStyle;rounded=0;orthogonalLoop=1;jettySize=auto;html=1;exitX=0.5;exitY=1;exitDx=0;exitDy=0;" edge="1" parent="1" source="7Iq_fOwBtfNfJKV4haK1-32" target="7Iq_fOwBtfNfJKV4haK1-37">
          <mxGeometry relative="1" as="geometry" />
        </mxCell>
        <mxCell id="7Iq_fOwBtfNfJKV4haK1-39" value="YES" style="edgeLabel;html=1;align=center;verticalAlign=middle;resizable=0;points=[];" connectable="0" vertex="1" parent="7Iq_fOwBtfNfJKV4haK1-38">
          <mxGeometry x="0.2727" y="1" relative="1" as="geometry">
            <mxPoint x="-1" y="-5" as="offset" />
          </mxGeometry>
        </mxCell>
        <mxCell id="7Iq_fOwBtfNfJKV4haK1-32" value="changed status?" style="rhombus;whiteSpace=wrap;html=1;" vertex="1" parent="1">
          <mxGeometry x="125" y="530" width="80" height="80" as="geometry" />
        </mxCell>
        <mxCell id="7Iq_fOwBtfNfJKV4haK1-45" style="edgeStyle=orthogonalEdgeStyle;rounded=0;orthogonalLoop=1;jettySize=auto;html=1;exitX=0.883;exitY=-0.017;exitDx=0;exitDy=0;entryX=0;entryY=0.5;entryDx=0;entryDy=0;exitPerimeter=0;" edge="1" parent="1" source="7Iq_fOwBtfNfJKV4haK1-37" target="7Iq_fOwBtfNfJKV4haK1-41">
          <mxGeometry relative="1" as="geometry">
            <Array as="points">
              <mxPoint x="211" y="650" />
              <mxPoint x="255" y="650" />
              <mxPoint x="255" y="520" />
            </Array>
          </mxGeometry>
        </mxCell>
        <mxCell id="7Iq_fOwBtfNfJKV4haK1-46" value="send" style="edgeLabel;html=1;align=center;verticalAlign=middle;resizable=0;points=[];" connectable="0" vertex="1" parent="7Iq_fOwBtfNfJKV4haK1-45">
          <mxGeometry x="0.6091" y="-2" relative="1" as="geometry">
            <mxPoint as="offset" />
          </mxGeometry>
        </mxCell>
        <mxCell id="7Iq_fOwBtfNfJKV4haK1-47" style="edgeStyle=orthogonalEdgeStyle;rounded=0;orthogonalLoop=1;jettySize=auto;html=1;exitX=1;exitY=0.25;exitDx=0;exitDy=0;entryX=0;entryY=0.25;entryDx=0;entryDy=0;" edge="1" parent="1" source="7Iq_fOwBtfNfJKV4haK1-37" target="7Iq_fOwBtfNfJKV4haK1-42">
          <mxGeometry relative="1" as="geometry" />
        </mxCell>
        <mxCell id="7Iq_fOwBtfNfJKV4haK1-48" value="send" style="edgeLabel;html=1;align=center;verticalAlign=middle;resizable=0;points=[];" connectable="0" vertex="1" parent="7Iq_fOwBtfNfJKV4haK1-47">
          <mxGeometry x="0.6889" y="-3" relative="1" as="geometry">
            <mxPoint x="-12" as="offset" />
          </mxGeometry>
        </mxCell>
        <mxCell id="7Iq_fOwBtfNfJKV4haK1-50" style="edgeStyle=orthogonalEdgeStyle;rounded=0;orthogonalLoop=1;jettySize=auto;html=1;exitX=1;exitY=0.5;exitDx=0;exitDy=0;entryX=0;entryY=0.75;entryDx=0;entryDy=0;" edge="1" parent="1" source="7Iq_fOwBtfNfJKV4haK1-37" target="7Iq_fOwBtfNfJKV4haK1-43">
          <mxGeometry relative="1" as="geometry" />
        </mxCell>
        <mxCell id="7Iq_fOwBtfNfJKV4haK1-51" value="send" style="edgeLabel;html=1;align=center;verticalAlign=middle;resizable=0;points=[];" connectable="0" vertex="1" parent="7Iq_fOwBtfNfJKV4haK1-50">
          <mxGeometry x="-0.6842" y="-1" relative="1" as="geometry">
            <mxPoint x="5" y="-1" as="offset" />
          </mxGeometry>
        </mxCell>
        <mxCell id="7Iq_fOwBtfNfJKV4haK1-52" style="edgeStyle=orthogonalEdgeStyle;rounded=0;orthogonalLoop=1;jettySize=auto;html=1;exitX=1;exitY=0.75;exitDx=0;exitDy=0;entryX=0;entryY=0.25;entryDx=0;entryDy=0;" edge="1" parent="1" source="7Iq_fOwBtfNfJKV4haK1-37" target="7Iq_fOwBtfNfJKV4haK1-44">
          <mxGeometry relative="1" as="geometry" />
        </mxCell>
        <mxCell id="7Iq_fOwBtfNfJKV4haK1-55" value="send" style="edgeLabel;html=1;align=center;verticalAlign=middle;resizable=0;points=[];" connectable="0" vertex="1" parent="7Iq_fOwBtfNfJKV4haK1-52">
          <mxGeometry x="0.5091" y="-2" relative="1" as="geometry">
            <mxPoint x="-13" y="-7" as="offset" />
          </mxGeometry>
        </mxCell>
        <mxCell id="7Iq_fOwBtfNfJKV4haK1-37" value="Change status files" style="rounded=1;whiteSpace=wrap;html=1;" vertex="1" parent="1">
          <mxGeometry x="105" y="650" width="120" height="60" as="geometry" />
        </mxCell>
        <mxCell id="7Iq_fOwBtfNfJKV4haK1-57" style="edgeStyle=orthogonalEdgeStyle;rounded=0;orthogonalLoop=1;jettySize=auto;html=1;exitX=1;exitY=0.25;exitDx=0;exitDy=0;" edge="1" parent="1" source="7Iq_fOwBtfNfJKV4haK1-41" target="7Iq_fOwBtfNfJKV4haK1-56">
          <mxGeometry relative="1" as="geometry" />
        </mxCell>
        <mxCell id="7Iq_fOwBtfNfJKV4haK1-58" value="download" style="edgeLabel;html=1;align=center;verticalAlign=middle;resizable=0;points=[];" connectable="0" vertex="1" parent="7Iq_fOwBtfNfJKV4haK1-57">
          <mxGeometry x="-0.1556" y="-1" relative="1" as="geometry">
            <mxPoint as="offset" />
          </mxGeometry>
        </mxCell>
        <mxCell id="7Iq_fOwBtfNfJKV4haK1-41" value="12:00 order status updates" style="rounded=1;whiteSpace=wrap;html=1;" vertex="1" parent="1">
          <mxGeometry x="315" y="490" width="120" height="60" as="geometry" />
        </mxCell>
        <mxCell id="7Iq_fOwBtfNfJKV4haK1-81" style="edgeStyle=orthogonalEdgeStyle;rounded=0;orthogonalLoop=1;jettySize=auto;html=1;exitX=0.967;exitY=0.133;exitDx=0;exitDy=0;entryX=0.25;entryY=0;entryDx=0;entryDy=0;exitPerimeter=0;" edge="1" parent="1" source="7Iq_fOwBtfNfJKV4haK1-42" target="7Iq_fOwBtfNfJKV4haK1-56">
          <mxGeometry relative="1" as="geometry">
            <Array as="points">
              <mxPoint x="445" y="568" />
              <mxPoint x="445" y="540" />
              <mxPoint x="485" y="540" />
            </Array>
          </mxGeometry>
        </mxCell>
        <mxCell id="7Iq_fOwBtfNfJKV4haK1-82" value="download" style="edgeLabel;html=1;align=center;verticalAlign=middle;resizable=0;points=[];" connectable="0" vertex="1" parent="7Iq_fOwBtfNfJKV4haK1-81">
          <mxGeometry x="0.1369" relative="1" as="geometry">
            <mxPoint x="14" as="offset" />
          </mxGeometry>
        </mxCell>
        <mxCell id="7Iq_fOwBtfNfJKV4haK1-42" value="13:00 order status updates" style="rounded=1;whiteSpace=wrap;html=1;" vertex="1" parent="1">
          <mxGeometry x="315" y="560" width="120" height="60" as="geometry" />
        </mxCell>
        <mxCell id="7Iq_fOwBtfNfJKV4haK1-60" style="edgeStyle=orthogonalEdgeStyle;rounded=0;orthogonalLoop=1;jettySize=auto;html=1;exitX=1;exitY=0.5;exitDx=0;exitDy=0;entryX=0.017;entryY=0.9;entryDx=0;entryDy=0;entryPerimeter=0;" edge="1" parent="1" source="7Iq_fOwBtfNfJKV4haK1-43" target="7Iq_fOwBtfNfJKV4haK1-56">
          <mxGeometry relative="1" as="geometry">
            <Array as="points">
              <mxPoint x="435" y="680" />
              <mxPoint x="457" y="680" />
            </Array>
          </mxGeometry>
        </mxCell>
        <mxCell id="7Iq_fOwBtfNfJKV4haK1-80" value="download" style="edgeLabel;html=1;align=center;verticalAlign=middle;resizable=0;points=[];rotation=-45;" connectable="0" vertex="1" parent="7Iq_fOwBtfNfJKV4haK1-60">
          <mxGeometry x="-0.5588" y="-2" relative="1" as="geometry">
            <mxPoint x="16" y="-2" as="offset" />
          </mxGeometry>
        </mxCell>
        <mxCell id="7Iq_fOwBtfNfJKV4haK1-43" value="14:00 order status updates" style="rounded=1;whiteSpace=wrap;html=1;" vertex="1" parent="1">
          <mxGeometry x="315" y="630" width="120" height="60" as="geometry" />
        </mxCell>
        <mxCell id="7Iq_fOwBtfNfJKV4haK1-61" style="edgeStyle=orthogonalEdgeStyle;rounded=0;orthogonalLoop=1;jettySize=auto;html=1;exitX=1;exitY=0.5;exitDx=0;exitDy=0;entryX=0.25;entryY=1;entryDx=0;entryDy=0;" edge="1" parent="1" source="7Iq_fOwBtfNfJKV4haK1-44" target="7Iq_fOwBtfNfJKV4haK1-56">
          <mxGeometry relative="1" as="geometry">
            <mxPoint x="525" y="620" as="targetPoint" />
          </mxGeometry>
        </mxCell>
        <mxCell id="7Iq_fOwBtfNfJKV4haK1-62" value="download" style="edgeLabel;html=1;align=center;verticalAlign=middle;resizable=0;points=[];" connectable="0" vertex="1" parent="7Iq_fOwBtfNfJKV4haK1-61">
          <mxGeometry x="-0.75" y="1" relative="1" as="geometry">
            <mxPoint x="16" y="1" as="offset" />
          </mxGeometry>
        </mxCell>
        <mxCell id="7Iq_fOwBtfNfJKV4haK1-44" value="15:00 order status updates" style="rounded=1;whiteSpace=wrap;html=1;" vertex="1" parent="1">
          <mxGeometry x="315" y="700" width="120" height="60" as="geometry" />
        </mxCell>
        <mxCell id="7Iq_fOwBtfNfJKV4haK1-64" style="edgeStyle=orthogonalEdgeStyle;rounded=0;orthogonalLoop=1;jettySize=auto;html=1;exitX=1;exitY=0.5;exitDx=0;exitDy=0;entryX=0.75;entryY=0;entryDx=0;entryDy=0;" edge="1" parent="1" source="7Iq_fOwBtfNfJKV4haK1-56" target="7Iq_fOwBtfNfJKV4haK1-63">
          <mxGeometry relative="1" as="geometry" />
        </mxCell>
        <mxCell id="7Iq_fOwBtfNfJKV4haK1-56" value="Get updated files" style="rounded=1;whiteSpace=wrap;html=1;" vertex="1" parent="1">
          <mxGeometry x="455" y="560" width="120" height="60" as="geometry" />
        </mxCell>
        <mxCell id="7Iq_fOwBtfNfJKV4haK1-66" style="edgeStyle=orthogonalEdgeStyle;rounded=0;orthogonalLoop=1;jettySize=auto;html=1;exitX=0.75;exitY=1;exitDx=0;exitDy=0;entryX=0.75;entryY=0;entryDx=0;entryDy=0;" edge="1" parent="1" source="7Iq_fOwBtfNfJKV4haK1-63" target="7Iq_fOwBtfNfJKV4haK1-65">
          <mxGeometry relative="1" as="geometry" />
        </mxCell>
        <mxCell id="7Iq_fOwBtfNfJKV4haK1-63" value="Update order status" style="rounded=1;whiteSpace=wrap;html=1;" vertex="1" parent="1">
          <mxGeometry x="515" y="640" width="120" height="60" as="geometry" />
        </mxCell>
        <mxCell id="7Iq_fOwBtfNfJKV4haK1-68" style="edgeStyle=orthogonalEdgeStyle;rounded=0;orthogonalLoop=1;jettySize=auto;html=1;exitX=0.75;exitY=1;exitDx=0;exitDy=0;entryX=0.5;entryY=0;entryDx=0;entryDy=0;" edge="1" parent="1" source="7Iq_fOwBtfNfJKV4haK1-65" target="7Iq_fOwBtfNfJKV4haK1-67">
          <mxGeometry relative="1" as="geometry" />
        </mxCell>
        <mxCell id="7Iq_fOwBtfNfJKV4haK1-70" style="edgeStyle=orthogonalEdgeStyle;rounded=0;orthogonalLoop=1;jettySize=auto;html=1;exitX=1;exitY=0.5;exitDx=0;exitDy=0;" edge="1" parent="1" source="7Iq_fOwBtfNfJKV4haK1-65" target="7Iq_fOwBtfNfJKV4haK1-69">
          <mxGeometry relative="1" as="geometry" />
        </mxCell>
        <mxCell id="7Iq_fOwBtfNfJKV4haK1-71" value="send" style="edgeLabel;html=1;align=center;verticalAlign=middle;resizable=0;points=[];" connectable="0" vertex="1" parent="7Iq_fOwBtfNfJKV4haK1-70">
          <mxGeometry x="-0.15" relative="1" as="geometry">
            <mxPoint as="offset" />
          </mxGeometry>
        </mxCell>
        <mxCell id="7Iq_fOwBtfNfJKV4haK1-65" value="Send update email" style="rounded=1;whiteSpace=wrap;html=1;" vertex="1" parent="1">
          <mxGeometry x="515" y="720" width="120" height="60" as="geometry" />
        </mxCell>
        <mxCell id="7Iq_fOwBtfNfJKV4haK1-67" value="" style="ellipse;html=1;shape=endState;fillColor=#000000;strokeColor=#ff0000;" vertex="1" parent="1">
          <mxGeometry x="590" y="810" width="30" height="30" as="geometry" />
        </mxCell>
        <mxCell id="7Iq_fOwBtfNfJKV4haK1-69" value="New update email" style="rounded=1;whiteSpace=wrap;html=1;" vertex="1" parent="1">
          <mxGeometry x="685" y="720" width="120" height="60" as="geometry" />
        </mxCell>
        <mxCell id="7Iq_fOwBtfNfJKV4haK1-72" value="" style="endArrow=none;dashed=1;html=1;rounded=0;" edge="1" parent="1">
          <mxGeometry width="50" height="50" relative="1" as="geometry">
            <mxPoint x="295" y="880" as="sourcePoint" />
            <mxPoint x="295" y="160" as="targetPoint" />
          </mxGeometry>
        </mxCell>
        <mxCell id="7Iq_fOwBtfNfJKV4haK1-73" value="" style="endArrow=none;dashed=1;html=1;rounded=0;" edge="1" parent="1">
          <mxGeometry width="50" height="50" relative="1" as="geometry">
            <mxPoint x="670" y="880" as="sourcePoint" />
            <mxPoint x="670" y="160" as="targetPoint" />
          </mxGeometry>
        </mxCell>
        <mxCell id="7Iq_fOwBtfNfJKV4haK1-74" value="" style="endArrow=none;dashed=1;html=1;rounded=0;strokeColor=#FF3333;" edge="1" parent="1">
          <mxGeometry width="50" height="50" relative="1" as="geometry">
            <mxPoint x="75" y="880" as="sourcePoint" />
            <mxPoint x="820" y="880" as="targetPoint" />
          </mxGeometry>
        </mxCell>
        <mxCell id="7Iq_fOwBtfNfJKV4haK1-75" value="" style="endArrow=none;dashed=1;html=1;rounded=0;" edge="1" parent="1">
          <mxGeometry width="50" height="50" relative="1" as="geometry">
            <mxPoint x="9" y="200" as="sourcePoint" />
            <mxPoint x="819" y="200" as="targetPoint" />
          </mxGeometry>
        </mxCell>
        <mxCell id="7Iq_fOwBtfNfJKV4haK1-77" value="&lt;i&gt;First scenario&lt;/i&gt;" style="text;html=1;align=center;verticalAlign=middle;whiteSpace=wrap;rounded=0;fillColor=#dae8fc;strokeColor=#6c8ebf;rotation=-90;fontSize=13;fontStyle=1" vertex="1" parent="1">
          <mxGeometry x="-25" y="247" width="100" height="20" as="geometry" />
        </mxCell>
        <mxCell id="7Iq_fOwBtfNfJKV4haK1-78" value="&lt;i&gt;Second scenario&lt;/i&gt;" style="text;html=1;align=center;verticalAlign=middle;whiteSpace=wrap;rounded=0;fillColor=#dae8fc;strokeColor=#6c8ebf;rotation=-90;fontSize=13;fontStyle=1" vertex="1" parent="1">
          <mxGeometry x="-30" y="590" width="110" height="20" as="geometry" />
        </mxCell>
        <mxCell id="7Iq_fOwBtfNfJKV4haK1-79" value="End" style="text;html=1;align=center;verticalAlign=middle;resizable=0;points=[];autosize=1;strokeColor=none;fillColor=none;" vertex="1" parent="1">
          <mxGeometry x="585" y="840" width="40" height="30" as="geometry" />
        </mxCell>
      </root>
    </mxGraphModel>
  </diagram>
</mxfile>
